<svg xmlns="http://www.w3.org/2000/svg" width="512" height="512" viewBox="0 0 82 107">
  <style>
    .fill {
      stroke: #030505;
    }

    @media (prefers-color-scheme: dark) {
      .fill {
        stroke: none;
        fill: #fff;
      }
    }
  </style>
    <g transform="matrix(1,0,0,1,-101.785,-74.2945)">
        <g>
            <g transform="matrix(1,0,0,-1,157.066,170.32)">
                <path d="M0,0C-2.094,-0.128 -4.217,0.401 -6.046,1.641L-7.25,2.456C-11.553,5.37 -17.111,5.37 -21.414,2.456L-22.619,1.641C-24.97,0.048 -27.802,-0.39 -30.435,0.283C-28.891,-0.246 -27.923,-1.49 -27.527,-2.918C-25.247,-2.819 -22.987,-2.105 -20.996,-0.757L-19.791,0.059C-16.477,2.305 -12.191,2.306 -8.873,0.059L-7.668,-0.757C-5.82,-2.008 -3.741,-2.718 -1.629,-2.894C-1.421,-1.776 -0.878,-0.734 0,0M14.389,16.075C14.44,16.161 14.477,16.246 14.534,16.332C15.049,17.105 15.615,17.836 16.211,18.536C12.507,19.849 8.267,19.419 4.873,17.121C1.557,14.877 -2.729,14.875 -6.046,17.121L-7.25,17.937C-11.553,20.851 -17.111,20.851 -21.414,17.937L-22.619,17.121C-25.935,14.875 -30.221,14.875 -33.537,17.121C-36.883,19.387 -41.051,19.838 -44.718,18.593C-44.172,17.792 -43.878,16.826 -43.83,15.843C-40.992,16.825 -37.756,16.481 -35.16,14.724C-30.857,11.811 -25.299,11.811 -20.996,14.724L-19.791,15.54C-16.477,17.786 -12.191,17.787 -8.873,15.54L-7.668,14.724C-5.517,13.267 -3.052,12.539 -0.586,12.539C1.879,12.539 4.344,13.268 6.496,14.724C8.857,16.323 11.749,16.751 14.389,16.075M4.873,32.602C1.557,30.359 -2.729,30.358 -6.046,32.602L-7.25,33.418C-11.553,36.331 -17.111,36.331 -21.414,33.418L-22.619,32.602C-25.935,30.358 -30.221,30.358 -33.537,32.602C-38.43,35.915 -45.079,35.355 -49.35,31.272L-47.348,29.18C-44.058,32.327 -38.933,32.759 -35.16,30.205C-30.857,27.293 -25.299,27.293 -20.996,30.205L-19.791,31.021C-16.477,33.267 -12.191,33.268 -8.873,31.021L-7.668,30.205C-5.517,28.749 -3.052,28.02 -0.586,28.021C1.879,28.021 4.344,28.749 6.496,30.205C10.267,32.759 15.393,32.326 18.684,29.18L20.685,31.272C16.415,35.355 9.765,35.914 4.873,32.602M-14.336,-7.316C-54.86,13.06 -52.481,58.172 -51.684,66.39C-31.169,68.049 -17.862,75.323 -14.336,77.463C-10.811,75.323 2.498,68.049 23.013,66.39C23.818,58.175 26.242,13.081 -14.336,-7.316M26.109,68.167L25.914,69.471L24.598,69.56C1.111,71.148 -13.277,80.666 -13.419,80.762L-13.628,80.902C-13.628,80.902 -15.806,80.396 -16.799,79.83C-21.105,77.379 -34.182,70.851 -53.27,69.56L-54.587,69.471L-54.781,68.167C-54.864,67.614 -62.499,12.597 -15.057,-10.619L-14.336,-10.972L-13.616,-10.619C33.826,12.597 26.192,67.614 26.109,68.167M-25.309,86.786C-22.134,85.596 -18.855,82.836 -16.786,79.836C-16.771,79.815 -13.601,80.847 -13.628,80.902C-14.356,82.378 -15.224,83.796 -15.939,84.6C-15.001,85.693 -14.064,86.474 -12.815,87.099C-10.785,85.381 -2.82,80.383 13.266,89.754C13.891,90.066 13.734,91.159 12.953,91.159C10.767,91.315 7.487,91.784 4.989,93.502C1.24,96.001 -3.445,96.781 -7.505,95.22C-10.004,94.283 -12.347,92.252 -13.127,88.817C-14.533,88.036 -15.782,87.099 -16.876,85.849C-18.906,88.192 -22.029,90.535 -23.279,91.003C-24.528,91.628 -25.934,91.003 -26.402,89.91C-27.027,88.66 -26.402,87.255 -25.309,86.786M-10.541,44.672L-7.066,44.672C-4.78,44.672 -4.282,47.035 -4.282,49.743C-4.282,52.131 -4.742,54.238 -7.066,54.238L-10.541,54.238L-10.541,44.672ZM-10.541,55.732L-7.425,55.732C-5.458,55.732 -4.87,57.585 -4.87,59.551C-4.87,61.812 -5.572,63.689 -8.012,63.689L-10.541,63.689L-10.541,55.732ZM-12.482,43.191L-12.482,65.171L-7.757,65.171C-3.836,65.171 -2.788,62.348 -2.788,59.59C-2.788,57.917 -3.593,55.822 -5.164,55.107C-2.979,54.226 -2.342,51.607 -2.342,49.743C-2.342,46.256 -3.082,43.191 -7.373,43.191L-12.482,43.191ZM-28.167,48.593L-28.167,65.171L-26.225,65.171L-26.225,48.147C-26.225,45.732 -25.293,44.404 -22.483,44.404C-19.827,44.404 -18.932,45.758 -18.932,48.147L-18.932,65.171L-17.004,65.171L-17.004,48.593C-17.004,45.502 -18.153,42.846 -22.483,42.846C-26.992,42.846 -28.167,45.502 -28.167,48.593" style="fill-rule:nonzero;" class="fill"/>
            </g>
        </g>
    </g>
</svg>